<svg xmlns="http://www.w3.org/2000/svg" width="512" height="512" viewBox="0 0 512 512" version="1.1"><path d="M 388 104.500 C 389.866 106.425, 391.617 108, 391.892 108 C 392.167 108, 390.866 106.425, 389 104.500 C 387.134 102.575, 385.383 101, 385.108 101 C 384.833 101, 386.134 102.575, 388 104.500 M 412.250 116.689 C 413.212 116.941, 414.788 116.941, 415.750 116.689 C 416.712 116.438, 415.925 116.232, 414 116.232 C 412.075 116.232, 411.288 116.438, 412.250 116.689 M 418 116.387 C 418 116.599, 419.326 116.968, 420.947 117.206 C 422.568 117.443, 423.667 117.270, 423.388 116.819 C 422.893 116.017, 418 115.625, 418 116.387 M 176.183 171.695 L 164.500 175.890 243.795 175.945 L 323.091 176 325.545 178.455 C 326.895 179.805, 328 181.605, 328 182.455 C 328 183.720, 329.451 184, 336 184 C 342.549 184, 344 183.720, 344 182.455 C 344 181.605, 345.105 179.805, 346.455 178.455 L 348.909 176 396.955 176 C 423.380 176, 445 175.617, 445 175.149 C 445 174.681, 444.507 172.885, 443.905 171.157 L 442.810 168.015 315.337 167.758 L 187.865 167.500 176.183 171.695 M 27.500 218.666 C 25.300 219.952, 21.813 221.524, 19.750 222.160 L 16 223.317 16 304.158 C 16 371.816, 16.223 385, 17.366 385 C 20.633 385, 33.048 392.329, 36.947 396.559 C 40.847 400.790, 46.997 411.920, 46.999 414.750 C 47 415.746, 89.467 416, 256 416 C 433.005 416, 465 415.789, 465 414.620 C 465 413.862, 466.499 410.262, 468.332 406.620 L 471.664 400 429.582 399.980 C 406.437 399.969, 348.101 399.978, 299.946 399.999 C 226.882 400.031, 210.415 399.784, 200.446 398.502 C 178.640 395.697, 158.113 389.564, 139.770 380.374 L 131.040 376 115.975 376 C 101.312 376, 100.843 375.934, 98.455 373.545 C 93.633 368.724, 96.988 360.047, 103.705 359.967 L 106.500 359.933 104 357.898 C 102.625 356.779, 98.494 353.194, 94.821 349.932 L 88.142 344 78.525 344 C 69.649 344, 68.720 343.811, 66.455 341.545 C 63.207 338.298, 63.207 333.702, 66.455 330.455 C 67.805 329.105, 70.081 328, 71.513 328 C 74.109 328, 74.104 327.983, 69.712 322.250 C 67.289 319.087, 64.772 315.488, 64.118 314.250 C 63.123 312.366, 62.100 312, 57.831 312 C 49.704 312, 45.041 310.106, 39.445 304.534 C 32.349 297.469, 31.814 294.920, 32.190 270 C 32.435 253.823, 32.830 248.861, 34.064 246.470 C 35.082 244.496, 35.375 242.495, 34.903 240.731 C 34.505 239.242, 33.659 233.188, 33.022 227.277 C 32.386 221.367, 31.783 216.486, 31.683 216.431 C 31.582 216.375, 29.700 217.381, 27.500 218.666 M 38.437 239.250 L 35.500 242.500 38.750 239.563 C 41.779 236.825, 42.460 236, 41.687 236 C 41.515 236, 40.052 237.463, 38.437 239.250 M 206.437 239.250 L 203.500 242.500 206.750 239.563 C 209.779 236.825, 210.460 236, 209.687 236 C 209.515 236, 208.052 237.463, 206.437 239.250 M 48.081 288.295 C 47.998 291.172, 51.798 296, 54.146 296 C 54.854 296, 54.627 295.448, 53.615 294.708 C 52.643 293.997, 51.018 291.634, 50.005 289.458 C 48.240 285.669, 48.158 285.619, 48.081 288.295 M 204 302.313 C 204 302.485, 205.463 303.948, 207.250 305.563 L 210.500 308.500 207.563 305.250 C 204.825 302.221, 204 301.540, 204 302.313" stroke="none" fill="#faaf42" fill-rule="evenodd"/><path d="M 284.718 133.334 L 188.936 167.500 315.131 167.754 C 384.538 167.893, 441.481 167.853, 441.670 167.663 C 441.860 167.473, 437.805 156.109, 432.659 142.409 L 423.302 117.500 415.901 116.861 C 411.830 116.510, 405.912 115.240, 402.748 114.039 C 396.565 111.691, 388.049 105.530, 385.401 101.490 C 384.504 100.120, 383.034 99.038, 382.135 99.084 C 381.236 99.130, 337.398 114.542, 284.718 133.334 M 328 185.826 C 328 186.830, 326.958 188.630, 325.686 189.826 L 323.371 192 185.654 192 C 55.384 192, 47.906 192.095, 47.353 193.750 C 45.081 200.557, 40.633 208.209, 36.611 212.231 L 31.885 216.957 32.960 226.728 C 33.551 232.103, 34.295 237.928, 34.614 239.674 L 35.194 242.848 38.109 239.529 C 43.429 233.469, 48.251 232, 62.815 232 C 74.940 232, 75.772 232.128, 77.826 234.314 C 80.776 237.455, 80.740 242.964, 77.750 245.743 C 75.800 247.555, 74.006 247.878, 64.275 248.167 C 48.331 248.640, 48.594 248.303, 48.190 268.775 C 47.909 282.982, 48.082 284.957, 49.981 289.237 C 51.136 291.842, 52.934 294.429, 53.975 294.987 C 55.017 295.544, 60.320 296, 65.760 296 C 74.806 296, 75.837 296.198, 77.826 298.314 C 80.805 301.486, 80.739 306.957, 77.686 309.826 C 75.821 311.577, 74.161 312, 69.150 312 C 63.014 312, 62.946 312.030, 64.118 314.250 C 64.772 315.488, 67.289 319.087, 69.712 322.250 L 74.117 328 198.884 328 L 323.651 328 325.826 330.314 C 328.805 333.486, 328.739 338.957, 325.686 341.826 L 323.371 344 206.011 344 L 88.651 344 91.076 346.586 C 92.409 348.009, 96.475 351.609, 100.111 354.586 L 106.723 360 139.187 360 L 171.651 360 173.826 362.314 C 176.805 365.486, 176.739 370.957, 173.686 373.826 C 171.473 375.904, 170.493 376.002, 151.436 376.049 L 131.500 376.097 138 379.508 C 148.130 384.823, 163.738 390.710, 176.160 393.902 C 198.908 399.748, 203.872 400, 296.266 400 L 380.349 400 378.174 397.686 C 376.202 395.586, 376 394.302, 376 383.860 C 376 373.120, 376.155 372.203, 378.314 370.174 C 381.486 367.195, 386.957 367.261, 389.826 370.314 C 391.795 372.411, 392 373.701, 392 384 C 392 394.299, 391.795 395.589, 389.826 397.686 L 387.651 400 429.299 400 L 470.947 400 475.523 395.424 C 479.408 391.540, 487.427 386.925, 494.250 384.647 C 495.897 384.097, 496 379.361, 496 304 C 496 228.639, 495.897 223.903, 494.250 223.353 C 487.403 221.068, 479.408 216.461, 475.492 212.545 C 471.019 208.072, 465.002 197.293, 465.001 193.750 C 465 192.103, 461.556 192, 406.674 192 L 348.349 192 346.174 189.686 C 344.978 188.413, 344 186.613, 344 185.686 C 344 184.245, 342.836 184, 336 184 C 328.921 184, 328 184.210, 328 185.826 M 378.174 210.314 C 376.202 212.414, 376 213.698, 376 224.140 C 376 234.880, 376.155 235.797, 378.314 237.826 C 381.486 240.805, 386.957 240.739, 389.826 237.686 C 391.798 235.586, 392 234.302, 392 223.860 C 392 213.120, 391.845 212.203, 389.686 210.174 C 386.514 207.195, 381.043 207.261, 378.174 210.314 M 410.174 226.314 C 407.195 229.486, 407.261 234.957, 410.314 237.826 C 412.590 239.963, 413.163 240, 444.140 240 L 475.651 240 477.826 237.686 C 480.805 234.514, 480.739 229.043, 477.686 226.174 C 475.410 224.037, 474.837 224, 443.860 224 L 412.349 224 410.174 226.314 M 90.174 234.314 C 87.195 237.486, 87.261 242.957, 90.314 245.826 C 92.130 247.532, 93.853 248, 98.314 248 L 104 248 104 272 L 104 296 98.174 296 C 93.378 296, 91.965 296.409, 90.174 298.314 C 87.195 301.486, 87.261 306.957, 90.314 309.826 C 92.527 311.905, 93.484 312, 112.140 312 C 131.242 312, 131.697 311.951, 133.826 309.686 C 136.805 306.514, 136.739 301.043, 133.686 298.174 C 131.870 296.468, 130.147 296, 125.686 296 L 120 296 120 272 L 120 248 125.826 248 C 130.622 248, 132.035 247.591, 133.826 245.686 C 136.805 242.514, 136.739 237.043, 133.686 234.174 C 131.473 232.095, 130.516 232, 111.860 232 C 92.758 232, 92.303 232.049, 90.174 234.314 M 146.174 234.314 C 144.026 236.601, 144 237.056, 144 272.140 L 144 307.651 146.314 309.826 C 149.486 312.805, 154.957 312.739, 157.826 309.686 C 159.865 307.515, 160.003 306.382, 160.053 291.436 L 160.106 275.500 168.156 291.500 C 172.584 300.300, 177.138 308.512, 178.277 309.750 C 181.131 312.849, 186.884 312.817, 189.826 309.686 C 191.974 307.399, 192 306.944, 192 271.860 L 192 236.349 189.686 234.174 C 186.514 231.195, 181.043 231.261, 178.174 234.314 C 176.135 236.485, 175.997 237.618, 175.947 252.564 L 175.894 268.500 167.844 252.500 C 163.416 243.700, 158.862 235.488, 157.723 234.250 C 154.869 231.151, 149.116 231.183, 146.174 234.314 M 213.537 234.056 C 208.163 236.737, 204.480 240.447, 202.040 245.638 C 200.180 249.596, 200 251.918, 200 272 C 200 292.302, 200.164 294.372, 202.105 298.499 C 203.262 300.962, 205.754 304.333, 207.642 305.990 C 213.467 311.105, 216.937 312, 230.948 312 C 242.934 312, 243.774 311.869, 245.826 309.686 C 248.776 306.545, 248.740 301.036, 245.750 298.257 C 243.800 296.445, 242.006 296.122, 232.275 295.833 C 218.576 295.427, 216.945 294.383, 216.213 285.559 L 215.752 280 225.702 280 C 234.809 280, 235.835 279.804, 237.826 277.686 C 240.805 274.514, 240.739 269.043, 237.686 266.174 C 235.634 264.247, 234.257 264, 225.562 264 L 215.752 264 216.213 258.441 C 216.945 249.617, 218.576 248.573, 232.275 248.167 C 242.006 247.878, 243.800 247.555, 245.750 245.743 C 248.848 242.863, 248.816 237.115, 245.686 234.174 C 243.550 232.168, 242.370 232.003, 230.436 232.040 C 219.607 232.073, 216.855 232.402, 213.537 234.056 M 258.174 234.314 C 256.026 236.601, 256 237.056, 256 272.140 L 256 307.651 258.314 309.826 C 261.486 312.805, 266.957 312.739, 269.826 309.686 C 271.907 307.470, 272 306.523, 272 287.613 L 272 267.855 274.635 269.927 C 276.084 271.067, 278.498 272, 280 272 C 281.502 272, 283.916 271.067, 285.365 269.927 L 288 267.855 288 287.753 C 288 307.260, 288.046 307.694, 290.314 309.826 C 293.486 312.805, 298.957 312.739, 301.826 309.686 C 303.974 307.399, 304 306.944, 304 271.860 L 304 236.349 301.686 234.174 C 298.541 231.221, 293.025 231.257, 290.300 234.250 C 289.174 235.488, 286.557 239.088, 284.484 242.250 C 282.412 245.412, 280.394 248, 280 248 C 279.606 248, 277.588 245.412, 275.516 242.250 C 269.708 233.387, 268.150 232, 264 232 C 261.476 232, 259.677 232.715, 258.174 234.314 M 330.240 234.250 C 328.689 235.905, 326 245.017, 320.066 268.727 C 315.630 286.451, 312 302.460, 312 304.302 C 312 308.748, 315.439 312, 320.140 312 C 324.764 312, 327.468 309.029, 329.239 302 L 330.625 296.500 336 296.500 L 341.375 296.500 342.761 302 C 344.553 309.108, 347.224 312, 352 312 C 356.623 312, 360 308.692, 360 304.162 C 360 302.397, 356.370 286.451, 351.934 268.727 C 343.089 233.383, 342.489 232, 336 232 C 333.505 232, 331.681 232.712, 330.240 234.250 M 378.174 250.314 C 376.202 252.414, 376 253.698, 376 264.140 C 376 274.880, 376.155 275.797, 378.314 277.826 C 381.486 280.805, 386.957 280.739, 389.826 277.686 C 391.798 275.586, 392 274.302, 392 263.860 C 392 253.120, 391.845 252.203, 389.686 250.174 C 386.514 247.195, 381.043 247.261, 378.174 250.314 M 410.174 250.314 C 407.195 253.486, 407.261 258.957, 410.314 261.826 C 412.575 263.949, 413.270 264, 440.140 264 C 467.604 264, 467.655 263.996, 469.826 261.686 C 472.805 258.514, 472.739 253.043, 469.686 250.174 C 467.425 248.051, 466.730 248, 439.860 248 C 412.396 248, 412.345 248.004, 410.174 250.314 M 410.174 274.314 C 407.195 277.486, 407.261 282.957, 410.314 285.826 C 412.575 287.949, 413.270 288, 440.140 288 C 467.604 288, 467.655 287.996, 469.826 285.686 C 472.805 282.514, 472.739 277.043, 469.686 274.174 C 467.425 272.051, 466.730 272, 439.860 272 C 412.396 272, 412.345 272.004, 410.174 274.314 M 335 278.500 C 335 279.325, 335.450 280, 336 280 C 336.550 280, 337 279.325, 337 278.500 C 337 277.675, 336.550 277, 336 277 C 335.450 277, 335 277.675, 335 278.500 M 378.174 290.314 C 376.202 292.414, 376 293.698, 376 304.140 C 376 314.880, 376.155 315.797, 378.314 317.826 C 381.486 320.805, 386.957 320.739, 389.826 317.686 C 391.798 315.586, 392 314.302, 392 303.860 C 392 293.120, 391.845 292.203, 389.686 290.174 C 386.514 287.195, 381.043 287.261, 378.174 290.314 M 410.174 298.314 C 407.195 301.486, 407.261 306.957, 410.314 309.826 C 412.575 311.949, 413.270 312, 440.140 312 C 467.604 312, 467.655 311.996, 469.826 309.686 C 472.805 306.514, 472.739 301.043, 469.686 298.174 C 467.425 296.051, 466.730 296, 439.860 296 C 412.396 296, 412.345 296.004, 410.174 298.314 M 410.174 322.314 C 407.195 325.486, 407.261 330.957, 410.314 333.826 C 412.575 335.949, 413.270 336, 440.140 336 C 467.604 336, 467.655 335.996, 469.826 333.686 C 472.805 330.514, 472.739 325.043, 469.686 322.174 C 467.425 320.051, 466.730 320, 439.860 320 C 412.396 320, 412.345 320.004, 410.174 322.314 M 378.174 330.314 C 376.202 332.414, 376 333.698, 376 344.140 C 376 354.880, 376.155 355.797, 378.314 357.826 C 381.486 360.805, 386.957 360.739, 389.826 357.686 C 391.798 355.586, 392 354.302, 392 343.860 C 392 333.120, 391.845 332.203, 389.686 330.174 C 386.514 327.195, 381.043 327.261, 378.174 330.314 M 410.174 346.314 C 407.195 349.486, 407.261 354.957, 410.314 357.826 C 412.575 359.949, 413.270 360, 440.140 360 C 467.604 360, 467.655 359.996, 469.826 357.686 C 472.805 354.514, 472.739 349.043, 469.686 346.174 C 467.425 344.051, 466.730 344, 439.860 344 C 412.396 344, 412.345 344.004, 410.174 346.314 M 194.174 362.314 C 191.195 365.486, 191.261 370.957, 194.314 373.826 C 196.624 375.995, 196.736 376, 244.140 376 L 291.651 376 293.826 373.686 C 296.805 370.514, 296.739 365.043, 293.686 362.174 C 291.376 360.005, 291.264 360, 243.860 360 L 196.349 360 194.174 362.314 M 410.174 370.314 C 407.195 373.486, 407.261 378.957, 410.314 381.826 C 412.590 383.963, 413.163 384, 444.140 384 L 475.651 384 477.826 381.686 C 480.805 378.514, 480.739 373.043, 477.686 370.174 C 475.410 368.037, 474.837 368, 443.860 368 L 412.349 368 410.174 370.314" stroke="none" fill="#fbbe5d" fill-rule="evenodd"/><path d="M 284.718 133.334 L 188.936 167.500 315.131 167.754 C 384.538 167.893, 441.481 167.853, 441.670 167.663 C 441.860 167.473, 437.805 156.109, 432.659 142.409 L 423.302 117.500 415.901 116.861 C 411.830 116.510, 405.912 115.240, 402.748 114.039 C 396.565 111.691, 388.049 105.530, 385.401 101.490 C 384.504 100.120, 383.034 99.038, 382.135 99.084 C 381.236 99.130, 337.398 114.542, 284.718 133.334 M 328 185.826 C 328 186.830, 326.958 188.630, 325.686 189.826 L 323.371 192 185.654 192 C 55.384 192, 47.906 192.095, 47.353 193.750 C 45.081 200.557, 40.633 208.209, 36.611 212.231 L 31.885 216.957 32.960 226.728 C 33.551 232.103, 34.295 237.928, 34.614 239.674 L 35.194 242.848 38.109 239.529 C 43.429 233.469, 48.251 232, 62.815 232 C 74.940 232, 75.772 232.128, 77.826 234.314 C 80.776 237.455, 80.740 242.964, 77.750 245.743 C 75.800 247.555, 74.006 247.878, 64.275 248.167 C 48.331 248.640, 48.594 248.303, 48.190 268.775 C 47.909 282.982, 48.082 284.957, 49.981 289.237 C 51.136 291.842, 52.934 294.429, 53.975 294.987 C 55.017 295.544, 60.320 296, 65.760 296 C 74.806 296, 75.837 296.198, 77.826 298.314 C 80.805 301.486, 80.739 306.957, 77.686 309.826 C 75.821 311.577, 74.161 312, 69.150 312 C 63.014 312, 62.946 312.030, 64.118 314.250 C 64.772 315.488, 67.289 319.087, 69.712 322.250 L 74.117 328 198.884 328 L 323.651 328 325.826 330.314 C 328.805 333.486, 328.739 338.957, 325.686 341.826 L 323.371 344 206.011 344 L 88.651 344 91.076 346.586 C 92.409 348.009, 96.475 351.609, 100.111 354.586 L 106.723 360 139.187 360 L 171.651 360 173.826 362.314 C 176.805 365.486, 176.739 370.957, 173.686 373.826 C 171.473 375.904, 170.493 376.002, 151.436 376.049 L 131.500 376.097 138 379.508 C 148.130 384.823, 163.738 390.710, 176.160 393.902 C 198.908 399.748, 203.872 400, 296.266 400 L 380.349 400 378.174 397.686 C 376.202 395.586, 376 394.302, 376 383.860 C 376 373.120, 376.155 372.203, 378.314 370.174 C 381.486 367.195, 386.957 367.261, 389.826 370.314 C 391.795 372.411, 392 373.701, 392 384 C 392 394.299, 391.795 395.589, 389.826 397.686 L 387.651 400 429.299 400 L 470.947 400 475.523 395.424 C 479.408 391.540, 487.427 386.925, 494.250 384.647 C 495.897 384.097, 496 379.361, 496 304 C 496 228.639, 495.897 223.903, 494.250 223.353 C 487.403 221.068, 479.408 216.461, 475.492 212.545 C 471.019 208.072, 465.002 197.293, 465.001 193.750 C 465 192.103, 461.556 192, 406.674 192 L 348.349 192 346.174 189.686 C 344.978 188.413, 344 186.613, 344 185.686 C 344 184.245, 342.836 184, 336 184 C 328.921 184, 328 184.210, 328 185.826 M 378.174 210.314 C 376.202 212.414, 376 213.698, 376 224.140 C 376 234.880, 376.155 235.797, 378.314 237.826 C 381.486 240.805, 386.957 240.739, 389.826 237.686 C 391.798 235.586, 392 234.302, 392 223.860 C 392 213.120, 391.845 212.203, 389.686 210.174 C 386.514 207.195, 381.043 207.261, 378.174 210.314 M 410.174 226.314 C 407.195 229.486, 407.261 234.957, 410.314 237.826 C 412.590 239.963, 413.163 240, 444.140 240 L 475.651 240 477.826 237.686 C 480.805 234.514, 480.739 229.043, 477.686 226.174 C 475.410 224.037, 474.837 224, 443.860 224 L 412.349 224 410.174 226.314 M 90.174 234.314 C 87.195 237.486, 87.261 242.957, 90.314 245.826 C 92.130 247.532, 93.853 248, 98.314 248 L 104 248 104 272 L 104 296 98.174 296 C 93.378 296, 91.965 296.409, 90.174 298.314 C 87.195 301.486, 87.261 306.957, 90.314 309.826 C 92.527 311.905, 93.484 312, 112.140 312 C 131.242 312, 131.697 311.951, 133.826 309.686 C 136.805 306.514, 136.739 301.043, 133.686 298.174 C 131.870 296.468, 130.147 296, 125.686 296 L 120 296 120 272 L 120 248 125.826 248 C 130.622 248, 132.035 247.591, 133.826 245.686 C 136.805 242.514, 136.739 237.043, 133.686 234.174 C 131.473 232.095, 130.516 232, 111.860 232 C 92.758 232, 92.303 232.049, 90.174 234.314 M 146.174 234.314 C 144.026 236.601, 144 237.056, 144 272.140 L 144 307.651 146.314 309.826 C 149.486 312.805, 154.957 312.739, 157.826 309.686 C 159.865 307.515, 160.003 306.382, 160.053 291.436 L 160.106 275.500 168.156 291.500 C 172.584 300.300, 177.138 308.512, 178.277 309.750 C 181.131 312.849, 186.884 312.817, 189.826 309.686 C 191.974 307.399, 192 306.944, 192 271.860 L 192 236.349 189.686 234.174 C 186.514 231.195, 181.043 231.261, 178.174 234.314 C 176.135 236.485, 175.997 237.618, 175.947 252.564 L 175.894 268.500 167.844 252.500 C 163.416 243.700, 158.862 235.488, 157.723 234.250 C 154.869 231.151, 149.116 231.183, 146.174 234.314 M 213.537 234.056 C 208.163 236.737, 204.480 240.447, 202.040 245.638 C 200.180 249.596, 200 251.918, 200 272 C 200 292.302, 200.164 294.372, 202.105 298.499 C 203.262 300.962, 205.754 304.333, 207.642 305.990 C 213.467 311.105, 216.937 312, 230.948 312 C 242.934 312, 243.774 311.869, 245.826 309.686 C 248.776 306.545, 248.740 301.036, 245.750 298.257 C 243.800 296.445, 242.006 296.122, 232.275 295.833 C 218.576 295.427, 216.945 294.383, 216.213 285.559 L 215.752 280 225.702 280 C 234.809 280, 235.835 279.804, 237.826 277.686 C 240.805 274.514, 240.739 269.043, 237.686 266.174 C 235.634 264.247, 234.257 264, 225.562 264 L 215.752 264 216.213 258.441 C 216.945 249.617, 218.576 248.573, 232.275 248.167 C 242.006 247.878, 243.800 247.555, 245.750 245.743 C 248.848 242.863, 248.816 237.115, 245.686 234.174 C 243.550 232.168, 242.370 232.003, 230.436 232.040 C 219.607 232.073, 216.855 232.402, 213.537 234.056 M 258.174 234.314 C 256.026 236.601, 256 237.056, 256 272.140 L 256 307.651 258.314 309.826 C 261.486 312.805, 266.957 312.739, 269.826 309.686 C 271.907 307.470, 272 306.523, 272 287.613 L 272 267.855 274.635 269.927 C 276.084 271.067, 278.498 272, 280 272 C 281.502 272, 283.916 271.067, 285.365 269.927 L 288 267.855 288 287.753 C 288 307.260, 288.046 307.694, 290.314 309.826 C 293.486 312.805, 298.957 312.739, 301.826 309.686 C 303.974 307.399, 304 306.944, 304 271.860 L 304 236.349 301.686 234.174 C 298.541 231.221, 293.025 231.257, 290.300 234.250 C 289.174 235.488, 286.557 239.088, 284.484 242.250 C 282.412 245.412, 280.394 248, 280 248 C 279.606 248, 277.588 245.412, 275.516 242.250 C 269.708 233.387, 268.150 232, 264 232 C 261.476 232, 259.677 232.715, 258.174 234.314 M 330.240 234.250 C 328.689 235.905, 326 245.017, 320.066 268.727 C 315.630 286.451, 312 302.460, 312 304.302 C 312 308.748, 315.439 312, 320.140 312 C 324.764 312, 327.468 309.029, 329.239 302 L 330.625 296.500 336 296.500 L 341.375 296.500 342.761 302 C 344.553 309.108, 347.224 312, 352 312 C 356.623 312, 360 308.692, 360 304.162 C 360 302.397, 356.370 286.451, 351.934 268.727 C 343.089 233.383, 342.489 232, 336 232 C 333.505 232, 331.681 232.712, 330.240 234.250 M 378.174 250.314 C 376.202 252.414, 376 253.698, 376 264.140 C 376 274.880, 376.155 275.797, 378.314 277.826 C 381.486 280.805, 386.957 280.739, 389.826 277.686 C 391.798 275.586, 392 274.302, 392 263.860 C 392 253.120, 391.845 252.203, 389.686 250.174 C 386.514 247.195, 381.043 247.261, 378.174 250.314 M 410.174 250.314 C 407.195 253.486, 407.261 258.957, 410.314 261.826 C 412.575 263.949, 413.270 264, 440.140 264 C 467.604 264, 467.655 263.996, 469.826 261.686 C 472.805 258.514, 472.739 253.043, 469.686 250.174 C 467.425 248.051, 466.730 248, 439.860 248 C 412.396 248, 412.345 248.004, 410.174 250.314 M 410.174 274.314 C 407.195 277.486, 407.261 282.957, 410.314 285.826 C 412.575 287.949, 413.270 288, 440.140 288 C 467.604 288, 467.655 287.996, 469.826 285.686 C 472.805 282.514, 472.739 277.043, 469.686 274.174 C 467.425 272.051, 466.730 272, 439.860 272 C 412.396 272, 412.345 272.004, 410.174 274.314 M 335 278.500 C 335 279.325, 335.450 280, 336 280 C 336.550 280, 337 279.325, 337 278.500 C 337 277.675, 336.550 277, 336 277 C 335.450 277, 335 277.675, 335 278.500 M 378.174 290.314 C 376.202 292.414, 376 293.698, 376 304.140 C 376 314.880, 376.155 315.797, 378.314 317.826 C 381.486 320.805, 386.957 320.739, 389.826 317.686 C 391.798 315.586, 392 314.302, 392 303.860 C 392 293.120, 391.845 292.203, 389.686 290.174 C 386.514 287.195, 381.043 287.261, 378.174 290.314 M 410.174 298.314 C 407.195 301.486, 407.261 306.957, 410.314 309.826 C 412.575 311.949, 413.270 312, 440.140 312 C 467.604 312, 467.655 311.996, 469.826 309.686 C 472.805 306.514, 472.739 301.043, 469.686 298.174 C 467.425 296.051, 466.730 296, 439.860 296 C 412.396 296, 412.345 296.004, 410.174 298.314 M 410.174 322.314 C 407.195 325.486, 407.261 330.957, 410.314 333.826 C 412.575 335.949, 413.270 336, 440.140 336 C 467.604 336, 467.655 335.996, 469.826 333.686 C 472.805 330.514, 472.739 325.043, 469.686 322.174 C 467.425 320.051, 466.730 320, 439.860 320 C 412.396 320, 412.345 320.004, 410.174 322.314 M 378.174 330.314 C 376.202 332.414, 376 333.698, 376 344.140 C 376 354.880, 376.155 355.797, 378.314 357.826 C 381.486 360.805, 386.957 360.739, 389.826 357.686 C 391.798 355.586, 392 354.302, 392 343.860 C 392 333.120, 391.845 332.203, 389.686 330.174 C 386.514 327.195, 381.043 327.261, 378.174 330.314 M 410.174 346.314 C 407.195 349.486, 407.261 354.957, 410.314 357.826 C 412.575 359.949, 413.270 360, 440.140 360 C 467.604 360, 467.655 359.996, 469.826 357.686 C 472.805 354.514, 472.739 349.043, 469.686 346.174 C 467.425 344.051, 466.730 344, 439.860 344 C 412.396 344, 412.345 344.004, 410.174 346.314 M 194.174 362.314 C 191.195 365.486, 191.261 370.957, 194.314 373.826 C 196.624 375.995, 196.736 376, 244.140 376 L 291.651 376 293.826 373.686 C 296.805 370.514, 296.739 365.043, 293.686 362.174 C 291.376 360.005, 291.264 360, 243.860 360 L 196.349 360 194.174 362.314 M 410.174 370.314 C 407.195 373.486, 407.261 378.957, 410.314 381.826 C 412.590 383.963, 413.163 384, 444.140 384 L 475.651 384 477.826 381.686 C 480.805 378.514, 480.739 373.043, 477.686 370.174 C 475.410 368.037, 474.837 368, 443.860 368 L 412.349 368 410.174 370.314" stroke="none" fill="#fbbe5d" fill-rule="evenodd"/><path d="M 249.500 128.049 L 115.500 175.873 75.924 175.937 L 36.349 176 34.340 178.250 C 33.193 179.534, 31.845 183.247, 31.198 186.902 C 29.143 198.514, 22.514 205.143, 10.902 207.198 C 7.247 207.845, 3.534 209.193, 2.250 210.340 L -0 212.349 -0 304 L 0 395.651 2.250 397.660 C 3.534 398.807, 7.247 400.155, 10.902 400.802 C 22.514 402.857, 29.143 409.486, 31.198 421.098 C 31.845 424.753, 33.193 428.466, 34.340 429.750 L 36.349 432 256 432 L 475.651 432 477.660 429.750 C 478.807 428.466, 480.155 424.753, 480.802 421.098 C 482.857 409.484, 489.487 402.855, 501.098 400.804 C 505.445 400.037, 508.383 398.863, 510.250 397.150 L 513 394.626 513 302.646 C 513 252.057, 512.696 210.971, 512.324 211.342 C 511.952 211.714, 510.715 211.189, 509.574 210.175 C 508.433 209.160, 504.619 207.821, 501.098 207.198 C 489.486 205.143, 482.857 198.514, 480.802 186.902 C 479.198 177.839, 477.275 176, 469.398 176 L 463.144 176 460.977 170.250 C 459.786 167.088, 453.634 150.550, 447.306 133.500 C 440.978 116.450, 434.968 101.635, 433.950 100.577 C 431.973 98.524, 429.150 98.309, 420.243 99.533 C 410.218 100.911, 401.620 96.466, 396.340 87.176 C 392.904 81.129, 391.388 79.976, 387.059 80.112 C 385.101 80.174, 323.200 101.746, 249.500 128.049 M 367.500 103.478 C 359.250 106.421, 313.125 122.864, 265 140.017 C 216.875 157.171, 174.575 172.250, 171 173.528 L 164.500 175.851 243.795 175.926 L 323.091 176 325.545 178.455 C 327.093 180.002, 328 182.052, 328 184 C 328 185.948, 327.093 187.998, 325.545 189.545 L 323.091 192 185.045 192 C 69.041 192, 47 192.218, 47 193.366 C 47 196.633, 39.671 209.048, 35.441 212.947 C 31.210 216.847, 20.080 222.997, 17.250 222.999 C 16.260 223, 16 239.867, 16 304 C 16 371.792, 16.223 385, 17.366 385 C 20.633 385, 33.048 392.329, 36.947 396.559 C 40.847 400.790, 46.997 411.920, 46.999 414.750 C 47 415.746, 89.467 416, 256 416 C 422.533 416, 465 415.746, 465.001 414.750 C 465.003 411.920, 471.153 400.790, 475.053 396.559 C 478.952 392.329, 491.367 385, 494.634 385 C 495.777 385, 496 371.792, 496 304 C 496 236.208, 495.777 223, 494.634 223 C 491.367 223, 478.952 215.671, 475.053 211.441 C 471.153 207.210, 465.003 196.080, 465.001 193.250 C 465 192.264, 452.724 192, 406.955 192 L 348.909 192 346.455 189.545 C 344.907 187.998, 344 185.948, 344 184 C 344 182.052, 344.907 180.002, 346.455 178.455 L 348.909 176 397.063 176 L 445.217 176 444.615 173.750 C 444.284 172.512, 439.390 159.125, 433.741 144 L 423.468 116.500 418.484 116.321 C 405.078 115.841, 396.227 112.106, 388.078 103.489 C 385.223 100.470, 382.800 98.028, 382.693 98.063 C 382.587 98.098, 375.750 100.534, 367.500 103.478 M 378.455 210.455 C 376.144 212.766, 376 213.558, 376 224 C 376 234.442, 376.144 235.234, 378.455 237.545 C 380.002 239.093, 382.052 240, 384 240 C 385.948 240, 387.998 239.093, 389.545 237.545 C 391.856 235.234, 392 234.442, 392 224 C 392 213.558, 391.856 212.766, 389.545 210.455 C 387.998 208.907, 385.948 208, 384 208 C 382.052 208, 380.002 208.907, 378.455 210.455 M 0.480 304 C 0.480 354.875, 0.601 375.688, 0.750 350.250 C 0.898 324.812, 0.898 283.187, 0.750 257.750 C 0.601 232.312, 0.480 253.125, 0.480 304 M 410.455 226.455 C 408.907 228.002, 408 230.052, 408 232 C 408 233.948, 408.907 235.998, 410.455 237.545 L 412.909 240 444 240 L 475.091 240 477.545 237.545 C 479.093 235.998, 480 233.948, 480 232 C 480 230.052, 479.093 228.002, 477.545 226.455 L 475.091 224 444 224 L 412.909 224 410.455 226.455 M 48 233.307 C 43.092 234.854, 34.721 243.522, 33.216 248.616 C 31.570 254.186, 31.570 289.814, 33.216 295.384 C 34.839 300.877, 43.123 309.161, 48.616 310.784 C 50.880 311.453, 57.763 312, 63.911 312 C 74.448 312, 75.232 311.859, 77.545 309.545 C 80.793 306.298, 80.793 301.702, 77.545 298.455 C 75.234 296.144, 74.442 296, 64 296 C 53.558 296, 52.766 295.856, 50.455 293.545 C 48.020 291.111, 48 290.936, 48 272 C 48 253.064, 48.020 252.889, 50.455 250.455 C 52.766 248.144, 53.558 248, 64 248 C 74.442 248, 75.234 247.856, 77.545 245.545 C 80.793 242.298, 80.793 237.702, 77.545 234.455 C 75.203 232.112, 74.552 232.005, 63.295 232.102 C 56.808 232.158, 49.925 232.701, 48 233.307 M 90.455 234.455 C 88.907 236.002, 88 238.052, 88 240 C 88 245.106, 91.782 248, 98.455 248 L 104 248 104 272 L 104 296 98.455 296 C 93.900 296, 92.470 296.439, 90.455 298.455 C 87.207 301.702, 87.207 306.298, 90.455 309.545 C 92.889 311.980, 93.064 312, 112 312 C 130.936 312, 131.111 311.980, 133.545 309.545 C 135.093 307.998, 136 305.948, 136 304 C 136 298.894, 132.218 296, 125.545 296 L 120 296 120 272 L 120 248 125.545 248 C 132.218 248, 136 245.106, 136 240 C 136 238.052, 135.093 236.002, 133.545 234.455 C 131.111 232.020, 130.936 232, 112 232 C 93.064 232, 92.889 232.020, 90.455 234.455 M 146.455 234.455 L 144 236.909 144 272 L 144 307.091 146.455 309.545 C 148.002 311.093, 150.052 312, 152 312 C 153.948 312, 155.998 311.093, 157.545 309.545 C 159.946 307.145, 160.001 306.730, 160.053 290.795 L 160.106 274.500 169.036 292.206 C 173.948 301.944, 178.845 310.382, 179.918 310.956 C 183.164 312.694, 186.952 312.139, 189.545 309.545 L 192 307.091 192 272 L 192 236.909 189.545 234.455 C 187.998 232.907, 185.948 232, 184 232 C 182.052 232, 180.002 232.907, 178.455 234.455 C 176.054 236.855, 175.999 237.270, 175.947 253.205 L 175.894 269.500 166.964 251.794 C 162.052 242.056, 157.155 233.618, 156.082 233.044 C 152.836 231.306, 149.048 231.861, 146.455 234.455 M 216 233.307 C 211.092 234.854, 202.721 243.522, 201.216 248.616 C 199.570 254.186, 199.570 289.814, 201.216 295.384 C 202.839 300.877, 211.123 309.161, 216.616 310.784 C 218.880 311.453, 225.763 312, 231.911 312 C 242.448 312, 243.232 311.859, 245.545 309.545 C 248.793 306.298, 248.793 301.702, 245.545 298.455 C 243.234 296.144, 242.442 296, 232 296 C 221.558 296, 220.766 295.856, 218.455 293.545 C 216.439 291.530, 216 290.100, 216 285.545 L 216 280 225.545 280 C 234.347 280, 235.282 279.809, 237.545 277.545 C 240.793 274.298, 240.793 269.702, 237.545 266.455 C 235.282 264.191, 234.347 264, 225.545 264 L 216 264 216 258.455 C 216 253.900, 216.439 252.470, 218.455 250.455 C 220.766 248.144, 221.558 248, 232 248 C 242.442 248, 243.234 247.856, 245.545 245.545 C 247.093 243.998, 248 241.948, 248 240 C 248 238.052, 247.093 236.002, 245.545 234.455 C 243.203 232.112, 242.552 232.005, 231.295 232.102 C 224.808 232.158, 217.925 232.701, 216 233.307 M 258.455 234.455 L 256 236.909 256 272 L 256 307.091 258.455 309.545 C 260.002 311.093, 262.052 312, 264 312 C 265.948 312, 267.998 311.093, 269.545 309.545 C 271.988 307.103, 272 306.995, 272 287.045 C 272 267.086, 272.008 267.008, 273.975 268.975 C 275.061 270.061, 277.037 271.222, 278.367 271.556 C 280.973 272.210, 286.480 269.885, 287.331 267.771 C 287.612 267.072, 287.878 275.633, 287.921 286.795 C 287.999 306.962, 288.016 307.106, 290.455 309.545 C 292.002 311.093, 294.052 312, 296 312 C 297.948 312, 299.998 311.093, 301.545 309.545 L 304 307.091 304 272 L 304 236.909 301.545 234.455 C 299 231.909, 295.172 231.302, 292.085 232.954 C 291.105 233.479, 288.097 237.298, 285.401 241.441 C 282.705 245.584, 280.275 248.974, 280 248.974 C 279.725 248.974, 277.295 245.584, 274.599 241.441 C 271.903 237.298, 268.895 233.479, 267.915 232.954 C 264.828 231.302, 261 231.909, 258.455 234.455 M 330.705 234.250 C 328.997 235.993, 326.616 244.100, 320.138 270.235 C 314.822 291.682, 312.004 304.879, 312.402 306.467 C 313.226 309.747, 318.226 312.329, 322.107 311.477 C 325.696 310.688, 327.389 308.172, 328.987 301.250 L 330.199 296 336.028 296 L 341.857 296 343.140 301.750 C 344.663 308.574, 347.624 312, 352 312 C 355.722 312, 360.012 308.123, 359.973 304.795 C 359.957 303.533, 356.159 287.428, 351.531 269.006 C 342.487 233.007, 342.060 232, 335.844 232 C 334.120 232, 331.999 232.929, 330.705 234.250 M 378.455 250.455 C 376.144 252.766, 376 253.558, 376 264 C 376 274.442, 376.144 275.234, 378.455 277.545 C 380.002 279.093, 382.052 280, 384 280 C 385.948 280, 387.998 279.093, 389.545 277.545 C 391.856 275.234, 392 274.442, 392 264 C 392 253.558, 391.856 252.766, 389.545 250.455 C 387.998 248.907, 385.948 248, 384 248 C 382.052 248, 380.002 248.907, 378.455 250.455 M 410.455 250.455 C 408.907 252.002, 408 254.052, 408 256 C 408 257.948, 408.907 259.998, 410.455 261.545 L 412.909 264 440 264 L 467.091 264 469.545 261.545 C 471.093 259.998, 472 257.948, 472 256 C 472 254.052, 471.093 252.002, 469.545 250.455 L 467.091 248 440 248 L 412.909 248 410.455 250.455 M 410.455 274.455 C 408.907 276.002, 408 278.052, 408 280 C 408 281.948, 408.907 283.998, 410.455 285.545 L 412.909 288 440 288 L 467.091 288 469.545 285.545 C 471.093 283.998, 472 281.948, 472 280 C 472 278.052, 471.093 276.002, 469.545 274.455 L 467.091 272 440 272 L 412.909 272 410.455 274.455 M 334.755 277.500 C 334.395 279.384, 334.702 280, 336 280 C 337.298 280, 337.605 279.384, 337.245 277.500 C 336.982 276.125, 336.422 275, 336 275 C 335.578 275, 335.018 276.125, 334.755 277.500 M 378.455 290.455 C 376.144 292.766, 376 293.558, 376 304 C 376 314.442, 376.144 315.234, 378.455 317.545 C 380.002 319.093, 382.052 320, 384 320 C 385.948 320, 387.998 319.093, 389.545 317.545 C 391.856 315.234, 392 314.442, 392 304 C 392 293.558, 391.856 292.766, 389.545 290.455 C 387.998 288.907, 385.948 288, 384 288 C 382.052 288, 380.002 288.907, 378.455 290.455 M 410.455 298.455 C 408.907 300.002, 408 302.052, 408 304 C 408 305.948, 408.907 307.998, 410.455 309.545 L 412.909 312 440 312 L 467.091 312 469.545 309.545 C 471.093 307.998, 472 305.948, 472 304 C 472 302.052, 471.093 300.002, 469.545 298.455 L 467.091 296 440 296 L 412.909 296 410.455 298.455 M 410.455 322.455 C 408.907 324.002, 408 326.052, 408 328 C 408 329.948, 408.907 331.998, 410.455 333.545 L 412.909 336 440 336 L 467.091 336 469.545 333.545 C 471.093 331.998, 472 329.948, 472 328 C 472 326.052, 471.093 324.002, 469.545 322.455 L 467.091 320 440 320 L 412.909 320 410.455 322.455 M 66.455 330.455 C 64.907 332.002, 64 334.052, 64 336 C 64 337.948, 64.907 339.998, 66.455 341.545 L 68.909 344 196 344 L 323.091 344 325.545 341.545 C 327.093 339.998, 328 337.948, 328 336 C 328 334.052, 327.093 332.002, 325.545 330.455 L 323.091 328 196 328 L 68.909 328 66.455 330.455 M 378.455 330.455 C 376.144 332.766, 376 333.558, 376 344 C 376 354.442, 376.144 355.234, 378.455 357.545 C 380.002 359.093, 382.052 360, 384 360 C 385.948 360, 387.998 359.093, 389.545 357.545 C 391.856 355.234, 392 354.442, 392 344 C 392 333.558, 391.856 332.766, 389.545 330.455 C 387.998 328.907, 385.948 328, 384 328 C 382.052 328, 380.002 328.907, 378.455 330.455 M 410.455 346.455 C 408.907 348.002, 408 350.052, 408 352 C 408 353.948, 408.907 355.998, 410.455 357.545 L 412.909 360 440 360 L 467.091 360 469.545 357.545 C 471.093 355.998, 472 353.948, 472 352 C 472 350.052, 471.093 348.002, 469.545 346.455 L 467.091 344 440 344 L 412.909 344 410.455 346.455 M 98.455 362.455 C 96.907 364.002, 96 366.052, 96 368 C 96 369.948, 96.907 371.998, 98.455 373.545 L 100.909 376 136 376 L 171.091 376 173.545 373.545 C 175.093 371.998, 176 369.948, 176 368 C 176 366.052, 175.093 364.002, 173.545 362.455 L 171.091 360 136 360 L 100.909 360 98.455 362.455 M 194.455 362.455 C 192.907 364.002, 192 366.052, 192 368 C 192 369.948, 192.907 371.998, 194.455 373.545 L 196.909 376 244 376 L 291.091 376 293.545 373.545 C 295.093 371.998, 296 369.948, 296 368 C 296 366.052, 295.093 364.002, 293.545 362.455 L 291.091 360 244 360 L 196.909 360 194.455 362.455 M 378.455 370.455 C 376.144 372.766, 376 373.558, 376 384 C 376 394.442, 376.144 395.234, 378.455 397.545 C 380.002 399.093, 382.052 400, 384 400 C 385.948 400, 387.998 399.093, 389.545 397.545 C 391.856 395.234, 392 394.442, 392 384 C 392 373.558, 391.856 372.766, 389.545 370.455 C 387.998 368.907, 385.948 368, 384 368 C 382.052 368, 380.002 368.907, 378.455 370.455 M 410.455 370.455 C 408.907 372.002, 408 374.052, 408 376 C 408 377.948, 408.907 379.998, 410.455 381.545 L 412.909 384 444 384 L 475.091 384 477.545 381.545 C 479.093 379.998, 480 377.948, 480 376 C 480 374.052, 479.093 372.002, 477.545 370.455 L 475.091 368 444 368 L 412.909 368 410.455 370.455" stroke="none" fill="#050404" fill-rule="evenodd"/></svg>